<svg width="334" height="71" viewBox="0 0 334 71" fill="none" xmlns="http://www.w3.org/2000/svg">
<path d="M80.9136 2L75.1328 3.64354L86.1843 6.15613L75.1328 8.61203L86.1843 11.1624L75.1328 14.185L86.1843 16.6409L75.1328 19.1913L86.1843 21.7416L75.1328 24.6698L86.6566 27.3146" stroke="#FCC203" stroke-width="2.60699" stroke-linecap="square"/>
<path d="M70.7217 41.6774C75.2641 41.7926 78.9111 45.5114 78.9111 50.0817L78.9102 50.1735H73.9971C73.9979 50.143 73.999 50.1124 73.999 50.0817C73.999 48.1516 72.4349 46.5868 70.5049 46.5865C68.5747 46.5865 67.0098 48.1514 67.0098 50.0817C67.0098 50.1124 67.0109 50.1429 67.0117 50.1735H62.0986L62.0977 50.0817C62.0977 45.4388 65.862 41.6744 70.5049 41.6744L70.7217 41.6774ZM92.6357 41.6774C97.1782 41.7926 100.825 45.5114 100.825 50.0817L100.824 50.1735H95.9111C95.9119 50.143 95.9131 50.1124 95.9131 50.0817C95.9131 48.1516 94.3489 46.5868 92.4189 46.5865C90.4887 46.5865 88.9238 48.1514 88.9238 50.0817C88.9238 50.1124 88.925 50.1429 88.9258 50.1735H84.0127L84.0117 50.0817C84.0117 45.4388 87.776 41.6744 92.4189 41.6744L92.6357 41.6774Z" fill="#FCC203"/>
<path d="M70.7217 41.6774C75.2641 41.7926 78.9111 45.5114 78.9111 50.0817L78.9102 50.1735H73.9971C73.9979 50.143 73.999 50.1124 73.999 50.0817C73.999 48.1516 72.4349 46.5868 70.5049 46.5865C68.5747 46.5865 67.0098 48.1514 67.0098 50.0817C67.0098 50.1124 67.0109 50.1429 67.0117 50.1735H62.0986L62.0977 50.0817C62.0977 45.4388 65.862 41.6744 70.5049 41.6744L70.7217 41.6774ZM92.6357 41.6774C97.1782 41.7926 100.825 45.5114 100.825 50.0817L100.824 50.1735H95.9111C95.9119 50.143 95.9131 50.1124 95.9131 50.0817C95.9131 48.1516 94.3489 46.5868 92.4189 46.5865C90.4887 46.5865 88.9238 48.1514 88.9238 50.0817C88.9238 50.1124 88.925 50.1429 88.9258 50.1735H84.0127L84.0117 50.0817C84.0117 45.4388 87.776 41.6744 92.4189 41.6744L92.6357 41.6774Z" stroke="#045071"/>
<path d="M115.75 31.0641V65.0397L110.782 70.0075H52.25L47.1738 64.9303V31.1784L52.3623 25.9899H110.676L115.75 31.0641ZM53.7861 63.3952H109.138V32.6012H53.7861V63.3952Z" fill="#045071"/>
<path d="M115.75 31.0641V65.0397L110.782 70.0075H52.25L47.1738 64.9303V31.1784L52.3623 25.9899H110.676L115.75 31.0641ZM53.7861 63.3952H109.138V32.6012H53.7861V63.3952Z" stroke="#045071"/>
<path d="M40.8857 70.2436H30.7099L22.9121 55.0905H9.36282V70.1883H0.458984V26.0009H31.9266L38.5077 31.8077V45.0806L31.8713 52.6018L40.8857 70.2436ZM9.36282 34.96V46.1866H25.8985L29.6038 41.9283V36.0108L28.2766 34.96H9.36282Z" fill="#045071"/>
<path d="M162.377 31.7524V45.3018L158.783 48.2881L162.377 51.4404V64.492L155.852 70.2436H123.776V26.0009H155.852L162.377 31.7524ZM153.529 42.5366V35.9555L152.202 34.9047H132.679V44.3616H150.985L153.529 42.5366ZM153.529 60.289V53.9844L150.93 52.0488H132.679V61.3397H152.202L153.529 60.289Z" fill="#045071"/>
<path d="M176.399 70.2436L169.873 64.492V31.7524L176.399 26.0009H201.452L208.033 31.7524V64.492L201.452 70.2436H176.399ZM180.049 61.3397H197.746L199.129 60.2337V35.9555L197.746 34.9047H180.049L178.722 35.9555V60.2337L180.049 61.3397Z" fill="#045071"/>
<path d="M214.005 25.2589H244.202L250.263 30.5419V49.1715L244.202 54.1208H222.959V69.7474H214.005V25.2589ZM222.959 45.2231H240.031L241.366 44.1665V35.2688L240.031 34.2122H222.959V45.2231Z" fill="#045071"/>
<path d="M256.352 69.7474V25.2589H292.554V34.2122H265.305V43.0543H290.886V51.952H265.305V60.7941H292.554V69.7474H256.352Z" fill="#045071"/>
<path d="M308.545 61.1277H333.459V69.7474H299.648V25.2589H308.545V61.1277Z" fill="#045071"/>
</svg>
